<?xml version="1.0" encoding="UTF-8" standalone="no"?>
<!-- Created with Inkscape (http://www.inkscape.org/) -->

<svg
   xmlns:dc="http://purl.org/dc/elements/1.1/"
   xmlns:cc="http://creativecommons.org/ns#"
   xmlns:rdf="http://www.w3.org/1999/02/22-rdf-syntax-ns#"
   xmlns:svg="http://www.w3.org/2000/svg"
   xmlns="http://www.w3.org/2000/svg"
   xmlns:sodipodi="http://sodipodi.sourceforge.net/DTD/sodipodi-0.dtd"
   xmlns:inkscape="http://www.inkscape.org/namespaces/inkscape"
   width="640px"
   height="480px"
   id="svg2985"
   version="1.1"
   inkscape:version="0.48.4 r9939"
   sodipodi:docname="xinnect.svg">
  <defs
     id="defs2987">
    <inkscape:path-effect
       effect="spiro"
       id="path-effect3104"
       is_visible="true" />
    <inkscape:path-effect
       effect="spiro"
       id="path-effect3096"
       is_visible="true" />
    <inkscape:path-effect
       effect="spiro"
       id="path-effect3092"
       is_visible="true" />
    <inkscape:path-effect
       effect="spiro"
       id="path-effect3088"
       is_visible="true" />
    <inkscape:path-effect
       effect="spiro"
       id="path-effect3084"
       is_visible="true" />
    <inkscape:path-effect
       effect="spiro"
       id="path-effect3080"
       is_visible="true" />
    <inkscape:path-effect
       effect="spiro"
       id="path-effect3076"
       is_visible="true" />
    <inkscape:path-effect
       effect="spiro"
       id="path-effect3068"
       is_visible="true" />
    <filter
       id="filter3164"
       style="color-interpolation-filters:sRGB;"
       inkscape:label="Drop Shadow">
      <feFlood
         id="feFlood3166"
         flood-opacity="0.5"
         flood-color="rgb(0,0,0)"
         result="flood" />
      <feComposite
         id="feComposite3168"
         in2="SourceGraphic"
         in="flood"
         operator="in"
         result="composite1" />
      <feGaussianBlur
         id="feGaussianBlur3170"
         in="composite"
         stdDeviation="5"
         result="blur" />
      <feOffset
         id="feOffset3172"
         dx="8"
         dy="8"
         result="offset" />
      <feComposite
         id="feComposite3174"
         in2="offset"
         in="SourceGraphic"
         operator="over"
         result="composite2" />
    </filter>
    <filter
       id="filter3035"
       inkscape:label="Chalk and sponge"
       inkscape:menu="Distort"
       inkscape:menu-tooltip="Low turbulence gives sponge look and high turbulence chalk"
       width="1.6"
       height="2"
       y="-0.5"
       x="-0.3"
       color-interpolation-filters="sRGB">
      <feTurbulence
         id="feTurbulence3037"
         baseFrequency="0.4"
         type="fractalNoise"
         seed="0"
         numOctaves="5"
         result="result1" />
      <feOffset
         id="feOffset3039"
         dx="-5"
         dy="-5"
         result="result2" />
      <feDisplacementMap
         id="feDisplacementMap3041"
         in2="result1"
         xChannelSelector="R"
         yChannelSelector="G"
         scale="30"
         in="SourceGraphic" />
    </filter>
    <filter
       id="filter3043"
       inkscape:label="Ink bleed"
       inkscape:menu="Protrusions"
       inkscape:menu-tooltip="Inky splotches underneath the object"
       color-interpolation-filters="sRGB">
      <feGaussianBlur
         id="feGaussianBlur3045"
         result="result1"
         in="SourceGraphic"
         stdDeviation="1.3" />
      <feTurbulence
         id="feTurbulence3047"
         result="result0"
         numOctaves="4"
         baseFrequency="0.034" />
      <feDisplacementMap
         id="feDisplacementMap3049"
         in2="result0"
         result="result2"
         scale="19.6"
         yChannelSelector="G"
         xChannelSelector="R"
         in="result1" />
      <feColorMatrix
         id="feColorMatrix3051"
         values="2 0 0 0 0 0 2 0 0 0 0 0 2 0 0 0 0 0 0.7 0"
         result="result3" />
      <feGaussianBlur
         id="feGaussianBlur3053"
         result="result4"
         in="SourceGraphic"
         stdDeviation="1.1" />
      <feComposite
         id="feComposite3055"
         in2="result3"
         in="result4" />
    </filter>
    <filter
       id="filter3057"
       inkscape:label="Ink bleed"
       inkscape:menu="Protrusions"
       inkscape:menu-tooltip="Inky splotches underneath the object"
       color-interpolation-filters="sRGB">
      <feGaussianBlur
         id="feGaussianBlur3059"
         result="result1"
         in="SourceGraphic"
         stdDeviation="1.3" />
      <feTurbulence
         id="feTurbulence3061"
         result="result0"
         numOctaves="4"
         baseFrequency="0.034" />
      <feDisplacementMap
         id="feDisplacementMap3063"
         in2="result0"
         result="result2"
         scale="19.6"
         yChannelSelector="G"
         xChannelSelector="R"
         in="result1" />
      <feColorMatrix
         id="feColorMatrix3065"
         values="2 0 0 0 0 0 2 0 0 0 0 0 2 0 0 0 0 0 0.7 0"
         result="result3" />
      <feGaussianBlur
         id="feGaussianBlur3067"
         result="result4"
         in="SourceGraphic"
         stdDeviation="1.1" />
      <feComposite
         id="feComposite3069"
         in2="result3"
         in="result4" />
    </filter>
  </defs>
  <sodipodi:namedview
     id="base"
     pagecolor="#ffffff"
     bordercolor="#666666"
     borderopacity="1.0"
     inkscape:pageopacity="0.0"
     inkscape:pageshadow="2"
     inkscape:zoom="1.095627"
     inkscape:cx="267.04253"
     inkscape:cy="185.05906"
     inkscape:current-layer="layer1"
     inkscape:document-units="px"
     showgrid="false"
     showguides="true"
     inkscape:guide-bbox="true"
     inkscape:window-width="1600"
     inkscape:window-height="814"
     inkscape:window-x="0"
     inkscape:window-y="24"
     inkscape:window-maximized="1" />
  <metadata
     id="metadata2990">
    <rdf:RDF>
      <cc:Work
         rdf:about="">
        <dc:format>image/svg+xml</dc:format>
        <dc:type
           rdf:resource="http://purl.org/dc/dcmitype/StillImage" />
        <dc:title />
      </cc:Work>
    </rdf:RDF>
  </metadata>
  <g
     id="layer1"
     inkscape:label="Layer 1"
     inkscape:groupmode="layer">
    <g
       id="g3043"
       style="filter:url(#filter3164)">
      <path
         inkscape:connector-curvature="0"
         d="m 116.83864,197.66146 c 3.91579,3.88666 7.41448,8.14979 11.12734,12.22297 3.86335,4.56133 8.10217,8.73903 12.67647,12.57774 0.57958,0.37336 3.84174,3.57689 4.39626,3.13949 -9.57128,6.44892 -10.51063,10.71008 -12.82935,4.40247 -0.2704,-0.67384 -0.63387,-1.30742 -1.04209,-1.90663 -0.80354,-2.0733 0.0265,-0.6468 0.37673,0.31623 -0.0423,0.043 -0.0545,0.10655 -0.0786,0.15359 20.86262,-21.32466 6.60047,-7.21965 11.96978,-8.16328 0.35542,0.0304 0.7148,0.0235 1.07168,0.0221 0.65768,0.58299 1.42258,0.74671 2.26094,0.87153 1.07003,0.3 0.519,0.46916 1.59334,0.10261 0.33888,0.38222 1.45838,1.59553 0.9434,2.10832 -3.28702,4.22703 -6.71385,8.34816 -10.13804,12.46513 -11.90571,14.26677 -24.49847,27.9234 -37.27123,41.41088 0,0 -10.512448,4.39053 -10.512448,4.39053 l 0,0 c 12.433258,-13.24034 24.678008,-26.65881 36.075328,-40.81275 3.16761,-3.95803 6.32107,-7.94431 9.31752,-12.02885 0.29938,-0.57517 0.51608,0.35827 0.61367,0.59963 -0.65877,-0.0629 -1.17232,-0.3847 -1.80611,-0.45914 -0.66823,-0.17895 -1.47955,-0.71891 -2.1211,-0.62323 -0.3606,-10e-4 -0.7244,-0.01 -1.08312,0.0251 -4.43098,-0.75916 -13.1556,9.74085 9.99692,-8.17574 0.0894,0.0427 0.18299,0.0758 0.27211,0.12025 0.62339,0.45503 1.55613,2.6641 0.32442,0.80394 0.41612,0.71591 0.80376,1.44883 1.14797,2.20218 2.07615,6.4524 6.20929,0.2337 -10.29005,9.96407 -1.66377,-1.08275 -2.94887,-2.67167 -4.51345,-3.88165 -4.44162,-4.02708 -8.6651,-8.25792 -12.56029,-12.82359 -3.70702,-4.0358 -7.21563,-8.28199 -11.40708,-11.8393 0,0 11.48906,-7.18458 11.48906,-7.18458 z"
         id="path2993"
         style="fill:#000000;filter:url(#filter3057)" />
      <path
         inkscape:connector-curvature="0"
         d="m 203.84424,156.86336 c -5.26845,3.26399 4.7042,-2.94591 8.25566,-4.4363 1.00823,-0.4231 -1.63484,1.455 -2.39975,2.23632 -3.71149,3.79104 -6.85315,8.09105 -10.07494,12.28935 -9.94332,13.21712 -19.81742,26.49886 -28.93276,40.30408 -6.02614,9.33245 -11.28329,19.16847 -14.55353,29.80798 -0.54854,2.61198 -1.49793,5.29667 -1.42996,8.00876 -17.88133,7.87134 -13.02106,9.2625 -11.72422,4.45549 0.37426,-1.38729 0.62795,-2.82881 0.93528,-4.23317 0.20565,-1.01703 0.38401,-2.03974 0.52556,-3.0677 0.0653,-0.44896 0.73476,0.65907 0.0968,0.81002 -4.94139,1.44986 6.65248,-7.93175 11.3678,-7.99559 0.22765,0.0737 0.38647,-0.24352 0.59405,-0.2109 1.59344,0.25042 3.98708,2.74381 5.07011,3.71762 8.23045,8.01053 15.65574,16.81747 23.14757,25.51072 13.4985,15.66375 27.13532,31.19625 41.18177,46.37137 9.39499,10.09331 4.69873,5.11991 14.08546,14.92334 0,0 -10.27205,6.26025 -10.27205,6.26025 l 0,0 c -9.33516,-9.85637 -4.65824,-4.86409 -14.0282,-14.97926 -14.03997,-15.21988 -27.66274,-30.80861 -41.49455,-46.21621 -7.6739,-8.53782 -15.29766,-17.20872 -23.9115,-24.82186 -1.09015,-0.86801 -2.52947,-2.34352 -4.01012,-2.62567 -0.43871,-0.0836 -0.97641,0.24332 -1.42166,0.0716 -4.90343,-0.27396 6.22377,-8.61005 10.72065,-8.07822 0.58227,0.0726 1.28619,0.58298 1.14107,1.25383 -0.1904,1.06849 -0.41723,2.13019 -0.6284,3.19465 -0.21915,1.07238 -0.52358,2.13041 -0.73516,3.20249 -1.27462,6.45844 1.69631,1.91721 -12.83091,8.60545 0.25106,-2.90826 0.98469,-5.76617 1.77242,-8.56585 3.45647,-10.86384 8.9243,-20.90089 15.10564,-30.45122 9.07895,-13.73019 18.8993,-26.94573 28.59605,-40.24279 1.86907,-2.52212 4.81084,-6.55198 6.84189,-9.08013 0.27893,-0.3472 4.13342,-4.98049 4.91583,-5.51042 8.44937,-5.72278 9.20503,-6.06529 14.72811,-8.91225 0,0 -10.63396,8.40418 -10.63396,8.40418 z"
         id="path2997"
         style="fill:#00ff00;filter:url(#filter3043)" />
      <text
         xml:space="preserve"
         style="font-size:40px;font-style:normal;font-weight:bold;line-height:125%;letter-spacing:0px;word-spacing:0px;fill:#000000;fill-opacity:1;stroke:none;font-family:Sans;-inkscape-font-specification:Purisa Bold Oblique;filter:url(#filter3035)"
         x="223.61624"
         y="268.24911"
         id="text3019"
         sodipodi:linespacing="125%"><tspan
           sodipodi:role="line"
           id="tspan3021"
           x="223.61624"
           y="268.24911"
           style="font-size:87px;font-style:normal;font-variant:normal;font-weight:bold;font-stretch:normal;font-family:Purisa;-inkscape-font-specification:Purisa Bold Oblique">in<tspan
   style="font-style:oblique;-inkscape-font-specification:Purisa Bold Oblique;font-weight:bold"
   id="tspan3023">nect</tspan></tspan></text>
    </g>
    <path
       style="fill:none;stroke:#000000;stroke-width:1px;stroke-linecap:butt;stroke-linejoin:miter;stroke-opacity:1"
       d="m 218.46065,141.72647 c 35.68692,-17.76026 71.68133,-34.90265 107.96165,-51.41692 32.58019,-14.830018 66.12917,-29.349513 101.78778,-32.489869 17.8293,-1.570178 36.04171,-0.202417 53.07049,5.308497 17.02878,5.510914 32.84045,15.284422 44.4101,28.940652 17.58225,20.75319 24.26252,50.25885 17.33399,76.56144"
       id="path3066"
       inkscape:path-effect="#path-effect3068"
       inkscape:original-d="m 218.46065,141.72647 c -3.09503,-28.50675 79.34309,-43.8464 107.96165,-51.41692 55.03541,-14.558617 148.90901,-39.877366 199.26837,1.75928 26.28494,21.73214 5.01609,69.74364 17.33399,76.56144"
       inkscape:connector-curvature="0" />
    <path
       style="fill:none;stroke:#000000;stroke-width:1px;stroke-linecap:butt;stroke-linejoin:miter;stroke-opacity:1"
       d="m 99.486414,197.96971 c -10.548651,-0.21984 -21.143281,2.6696 -30.11974,8.21447 -8.93748,5.52079 -16.213546,13.61343 -21.060832,22.93338 -4.847286,9.31995 -7.288452,19.83472 -7.387111,30.33938 -0.197319,21.00932 8.990999,41.48277 22.971627,57.16629 17.327029,19.43752 42.137792,32.02828 68.055972,34.5365 25.91817,2.50821 52.68284,-5.09139 73.41553,-20.84571"
       id="path3074"
       inkscape:path-effect="#path-effect3076"
       inkscape:original-d="m 99.486414,197.96971 c 0.387339,-8.37701 -18.610575,-1.3765 -30.11974,8.21447 -29.370871,24.47573 -37.737475,84.63012 -5.476316,110.43905 43.490062,34.79204 97.596302,28.31586 141.471502,13.69079"
       inkscape:connector-curvature="0" />
    <path
       style="fill:none;stroke:#000000;stroke-width:1px;stroke-linecap:butt;stroke-linejoin:miter;stroke-opacity:1"
       d="m 257.38687,345.83025 c 5.01234,6.48608 10.85559,12.32933 17.34167,17.34167 13.10615,10.12822 28.76383,16.76955 45.01394,19.97669 16.25012,3.20715 33.08174,3.03658 49.423,0.33197 32.68254,-5.40922 62.94119,-20.70865 90.8451,-38.56305 17.79797,-11.38809 34.88016,-23.89469 51.11228,-37.4215"
       id="path3102"
       inkscape:path-effect="#path-effect3104"
       inkscape:original-d="m 257.38687,345.83025 c 2.53706,7.01636 10.98236,12.57219 17.34167,17.34167 49.60836,37.20627 136.04442,9.88139 185.28204,-18.25439 12.18542,-6.9631 41.98676,-34.37966 51.11228,-37.4215"
       inkscape:connector-curvature="0" />
    <path
       sodipodi:type="arc"
       style="fill:#ff0000"
       id="path3106"
       sodipodi:cx="107.24453"
       sodipodi:cy="200.25151"
       sodipodi:rx="7.7581148"
       sodipodi:ry="7.7581148"
       d="m 115.00264,200.25151 a 7.7581148,7.7581148 0 1 1 -15.516225,0 7.7581148,7.7581148 0 1 1 15.516225,0 z"
       transform="translate(-7.3017551,0)" />
    <path
       sodipodi:type="arc"
       style="fill:#ff0000"
       id="path3108"
       sodipodi:cx="211.29454"
       sodipodi:cy="328.94495"
       sodipodi:rx="7.7581148"
       sodipodi:ry="7.7581148"
       d="m 219.05266,328.94495 a 7.7581148,7.7581148 0 1 1 -15.51623,0 7.7581148,7.7581148 0 1 1 15.51623,0 z" />
    <path
       sodipodi:type="arc"
       style="fill:#ff0000"
       id="path3110"
       sodipodi:cx="216.77086"
       sodipodi:cy="142.75018"
       sodipodi:rx="6.8453956"
       sodipodi:ry="6.8453956"
       d="m 223.61625,142.75018 a 6.8453956,6.8453956 0 1 1 -13.69079,0 6.8453956,6.8453956 0 1 1 13.69079,0 z" />
    <path
       sodipodi:type="arc"
       style="fill:#ff0000"
       id="path3112"
       sodipodi:cx="540.3299"
       sodipodi:cy="109.43593"
       sodipodi:rx="7.301755"
       sodipodi:ry="7.301755"
       d="m 547.63165,109.43593 a 7.301755,7.301755 0 1 1 -14.60351,0 7.301755,7.301755 0 1 1 14.60351,0 z"
       transform="translate(-2.7381615,61.152195)" />
    <path
       sodipodi:type="arc"
       style="fill:#ff0000"
       id="path3114"
       sodipodi:cx="512.49194"
       sodipodi:cy="307.95239"
       sodipodi:rx="7.7581148"
       sodipodi:ry="7.7581148"
       d="m 520.25006,307.95239 a 7.7581148,7.7581148 0 1 1 -15.51623,0 7.7581148,7.7581148 0 1 1 15.51623,0 z" />
    <path
       sodipodi:type="arc"
       style="fill:#ff0000"
       id="path3116"
       sodipodi:cx="256.01779"
       sodipodi:cy="342.63574"
       sodipodi:rx="8.6708345"
       sodipodi:ry="8.6708345"
       d="m 264.68863,342.63574 a 8.6708345,8.6708345 0 1 1 -17.34167,0 8.6708345,8.6708345 0 1 1 17.34167,0 z" />
  </g>
</svg>
